<svg xmlns="http://www.w3.org/2000/svg" viewBox="0 0 64 64">
  <!-- Tracks -->
  <rect x="6" y="28" width="52" height="24" rx="10" fill="#3a3a3a"/>
  <rect x="8" y="30" width="48" height="20" rx="8" fill="#555"/>
  <!-- Track treads -->
  <circle cx="18" cy="40" r="6" fill="#444"/>
  <circle cx="32" cy="40" r="6" fill="#444"/>
  <circle cx="46" cy="40" r="6" fill="#444"/>
  <circle cx="18" cy="40" r="3" fill="#666"/>
  <circle cx="32" cy="40" r="3" fill="#666"/>
  <circle cx="46" cy="40" r="3" fill="#666"/>
  <!-- Body -->
  <rect x="14" y="22" width="36" height="18" rx="4" fill="#4a8"/>
  <rect x="16" y="24" width="32" height="14" rx="3" fill="#5cb"/>
  <!-- Turret -->
  <rect x="22" y="14" width="20" height="14" rx="6" fill="#4a8"/>
  <rect x="24" y="16" width="16" height="10" rx="4" fill="#5cb"/>
  <!-- Barrel -->
  <rect x="44" y="17" width="16" height="6" rx="2" fill="#3a3a3a"/>
  <rect x="44" y="18" width="14" height="4" rx="1.5" fill="#555"/>
  <!-- Muzzle flash hint -->
  <circle cx="60" cy="20" r="3" fill="#fa4" opacity="0.7"/>
</svg>
